<svg width="26" height="32" viewBox="0 0 26 32" fill="none" xmlns="http://www.w3.org/2000/svg">
<path d="M6.88353 19.8125C6.5867 19.8125 6.38666 19.8406 6.28342 19.8687V21.7094C6.40602 21.7375 6.55927 21.7453 6.7706 21.7453C7.54333 21.7453 8.01922 21.3672 8.01922 20.7281C8.01922 20.1562 7.60947 19.8125 6.88353 19.8125ZM12.5088 19.8313C12.1861 19.8313 11.9764 19.8594 11.8522 19.8875V23.9656C11.9764 23.9937 12.1764 23.9938 12.3571 23.9938C13.6751 24.0031 14.5333 23.3 14.5333 21.8125C14.543 20.5156 13.7606 19.8313 12.5088 19.8313Z" fill="#32495E"/>
<path d="M16.132 0H3.2264C2.37071 0 1.55006 0.32924 0.944991 0.915291C0.339923 1.50134 0 2.2962 0 3.125V28.125C0 28.9538 0.339923 29.7487 0.944991 30.3347C1.55006 30.9208 2.37071 31.25 3.2264 31.25H22.5848C23.4405 31.25 24.2612 30.9208 24.8662 30.3347C25.4713 29.7487 25.8112 28.9538 25.8112 28.125V9.375L16.132 0ZM8.86938 22.1719C8.3709 22.625 7.63528 22.8281 6.77867 22.8281C6.61257 22.8299 6.44656 22.8205 6.2818 22.8V25.0281H4.8396V18.8781C5.49046 18.7841 6.1481 18.7412 6.80609 18.75C7.70465 18.75 8.34347 18.9156 8.7742 19.2484C9.18395 19.5641 9.46142 20.0812 9.46142 20.6906C9.45981 21.3031 9.25009 21.8203 8.86938 22.1719ZM15.0108 24.2891C14.3333 24.8344 13.3025 25.0938 12.0425 25.0938C11.2876 25.0938 10.7536 25.0469 10.3906 25V18.8797C11.0417 18.7876 11.6992 18.7443 12.3571 18.75C13.5783 18.75 14.372 18.9625 14.9915 19.4156C15.661 19.8969 16.0804 20.6641 16.0804 21.7656C16.0804 22.9578 15.6303 23.7812 15.0108 24.2891ZM20.9716 19.9531H18.5002V21.3766H20.8103V22.5234H18.5002V25.0297H17.0386V18.7969H20.9716V19.9531ZM16.132 10.9375H14.5188V3.125L22.5848 10.9375H16.132Z" fill="#32495E"/>
</svg>
