<svg width="8" height="8" viewBox="0 0 8 8" fill="none" xmlns="http://www.w3.org/2000/svg">
<path d="M1.84566 7.29533C1.89958 7.32338 1.96012 7.33621 2.02079 7.33245C2.08145 7.3287 2.13994 7.30849 2.18999 7.274L6.52333 4.274C6.56761 4.24332 6.60379 4.20237 6.62878 4.15465C6.65378 4.10693 6.66683 4.05387 6.66683 4C6.66683 3.94613 6.65378 3.89307 6.62878 3.84535C6.60379 3.79763 6.56761 3.75668 6.52333 3.726L2.18999 0.725999C2.13998 0.691397 2.08146 0.671134 2.02076 0.667406C1.96007 0.663677 1.8995 0.676624 1.84564 0.704846C1.79177 0.733067 1.74665 0.775487 1.71516 0.827513C1.68367 0.879538 1.66701 0.939187 1.66699 0.999999V7C1.66698 7.06084 1.68363 7.12053 1.71512 7.17259C1.74662 7.22465 1.79176 7.2671 1.84566 7.29533Z" fill="#00ABAA"/>
</svg>
